<svg width="23" height="20" viewBox="0 0 23 20" fill="none" xmlns="http://www.w3.org/2000/svg">
    <path fill-rule="evenodd" clip-rule="evenodd" d="M8.90425 0.937311C9.43383 0.41043 10.2904 0.413132 10.8172 0.940013C11.3441 1.46689 11.3441 2.32341 10.8172 2.85029L5.41333 8.2542C5.14854 8.51629 4.80269 8.64869 4.45684 8.64869C4.11099 8.64869 3.76514 8.51629 3.50305 8.2515L0.801094 5.54955C0.274213 5.02266 0.274213 4.16615 0.801094 3.63926C1.32797 3.11238 2.18449 3.11238 2.71137 3.63926L4.45684 5.38743L8.90425 0.937311ZM8.90425 11.7451C9.43383 11.2182 10.2904 11.2209 10.8172 11.7478C11.3441 12.2747 11.3441 13.1312 10.8172 13.6581L5.41333 19.062C5.14854 19.3241 4.80269 19.4565 4.45684 19.4565C4.11099 19.4565 3.76514 19.3241 3.50305 19.062L0.801094 16.3601C0.274213 15.8332 0.274213 14.9767 0.801094 14.4498C1.32797 13.9229 2.18449 13.9229 2.71137 14.4498L4.45684 16.1952L8.90425 11.7451ZM20.6686 3.24478H15.2646C14.5189 3.24478 13.9137 3.85002 13.9137 4.59576C13.9137 5.34149 14.5189 5.94673 15.2646 5.94673H20.6686C21.4143 5.94673 22.0195 5.34149 22.0195 4.59576C22.0195 3.85002 21.4143 3.24478 20.6686 3.24478ZM15.2646 14.0526H20.6686C21.4143 14.0526 22.0195 14.6578 22.0195 15.4036C22.0195 16.1493 21.4143 16.7545 20.6686 16.7545H15.2646C14.5189 16.7545 13.9137 16.1493 13.9137 15.4036C13.9137 14.6578 14.5189 14.0526 15.2646 14.0526Z" fill="#FFC200"/>
</svg>
