<svg width="20" height="20" viewBox="0 0 20 20" fill="none" xmlns="http://www.w3.org/2000/svg">
    <rect width="20" height="20" rx="4" fill="#FFC200"/>
    <mask id="mask0" mask-type="alpha" maskUnits="userSpaceOnUse" x="0" y="0" width="20" height="20">
        <rect width="20" height="20" rx="4" fill="white"/>
    </mask>
    <g mask="url(#mask0)">
        <path d="M12.4315 19.2417L15.2812 16.3903C16.6274 15.0432 18.813 15.0404 20.1628 16.3839C20.165 16.386 20.1671 16.3881 20.1692 16.3903L23.0189 19.2417C24.3627 20.5862 24.3627 22.7624 23.0189 24.107L20.1692 26.9584C18.823 28.3054 16.6374 28.3083 15.2876 26.9648C15.2855 26.9626 15.2833 26.9605 15.2812 26.9584L12.4315 24.107C11.0878 22.7624 11.0878 20.5862 12.4315 19.2417Z" fill="#FF0000"/>
        <path d="M3.48678 5.7672L6.33646 2.91581C7.6827 1.56875 9.86829 1.56587 11.2181 2.90938C11.2202 2.91152 11.2224 2.91366 11.2245 2.91581L14.0742 5.7672C15.4179 7.11175 15.4179 9.28793 14.0742 10.6325L11.2245 13.4839C9.87829 14.8309 7.69271 14.8338 6.3429 13.4903C6.34075 13.4882 6.3386 13.486 6.33646 13.4839L3.48678 10.6325C2.14305 9.28793 2.14305 7.11175 3.48678 5.7672Z" fill="#753AD7"/>
    </g>
</svg>
