<svg width="20" height="20" viewBox="0 0 20 20" fill="none" xmlns="http://www.w3.org/2000/svg">
    <rect width="20" height="20" rx="4" fill="#FFC200"/>
    <mask id="mask0" mask-type="alpha" maskUnits="userSpaceOnUse" x="0" y="0" width="20" height="20">
        <rect width="20" height="20" rx="4" fill="white"/>
    </mask>
    <g mask="url(#mask0)">
        <path d="M12.0382 3.68043C10.8393 1.8294 11.3648 -0.642777 13.2129 -1.84614L21.2818 -7.1C23.1363 -8.30747 25.6187 -7.77981 26.8217 -5.92246L37.6769 10.8372C38.8758 12.6882 38.3503 15.1604 36.5022 16.3637L28.4333 21.6176C26.5788 22.8251 24.0964 22.2974 22.8934 20.4401L12.0382 3.68043Z" fill="#753AD7"/>
        <path d="M11.6275 14.9415C11.6275 18.0859 9.08652 20.626 5.96322 20.626C2.83993 20.626 0.298986 18.0859 0.298986 14.9415C0.298986 11.797 2.83993 9.25696 5.96322 9.25696C9.08652 9.25696 11.6275 11.797 11.6275 14.9415Z" stroke="#FF0000" stroke-width="4"/>
    </g>
</svg>
